# xmcd
#
# Track frame offsets: 
#        150
#        11868
#        33259
#        43155
#        60218
#        88488
#        102709
#        129251
#        162376
#        179551
#        210347
#        220367
#
# Disc length: 3130 seconds
#
# Revision: 0
# Processed by: cddbd v1.5.2PL0 Copyright (c) Steve Scherf et al.
# Submitted via: ExactAudioCopyFreeDBPlugin 1.0
#
DISCID=ac0c380c
DTITLE=eLZhi - Elmatic
DYEAR=2011
DGENRE=Hip-Hop
TTITLE0=The Genesis
TTITLE1=Detroit State of Mind
TTITLE2=Halftime
TTITLE3=Memory Lane
TTITLE4=The World Is Yours
TTITLE5=Represent
TTITLE6=Life's a Bitch (feat. Royce da 5'9" and Stokley Williams)
TTITLE7=One Love
TTITLE8=It Ain't Hard To Tell
TTITLE9=Pete Rock Shout
TTITLE10=Verbal Intercourse Part 2
TTITLE11=Detroit State of Mind (Remix)
EXTD=
EXTT0=
EXTT1=
EXTT2=
EXTT3=
EXTT4=
EXTT5=
EXTT6=
EXTT7=
EXTT8=
EXTT9=
EXTT10=
EXTT11=
PLAYORDER=
